<svg width="16" height="16" viewBox="0 0 16 16" fill="none" xmlns="http://www.w3.org/2000/svg">
<path d="M16 8.72072C15.8599 10.237 15.2908 11.682 14.3594 12.8867C13.428 14.0914 12.1728 15.0059 10.7406 15.5232C9.3084 16.0405 7.7585 16.1392 6.27225 15.8078C4.78601 15.4764 3.42487 14.7286 2.34813 13.6519C1.27138 12.5751 0.52356 11.214 0.192161 9.72775C-0.139237 8.2415 -0.0405024 6.6916 0.476812 5.25942C0.994126 3.82724 1.90862 2.572 3.1133 1.64059C4.31797 0.709184 5.76299 0.140124 7.27928 0C6.39154 1.20101 5.96435 2.68075 6.07542 4.1701C6.18648 5.65945 6.82842 7.05947 7.88447 8.11553C8.94053 9.17158 10.3405 9.81352 11.8299 9.92458C13.3192 10.0356 14.799 9.60846 16 8.72072Z" fill="white"/>
</svg>
