<svg width="24" height="21" viewBox="0 0 24 21" fill="none" xmlns="http://www.w3.org/2000/svg">
<path d="M23.6368 15.888H10.5972V20.5642C10.5972 20.7697 10.4344 20.9362 10.2335 20.9362C10.1322 20.9362 10.0409 20.8939 9.97486 20.8257L0.106495 10.7309C-0.0354985 10.5857 -0.0354985 10.3501 0.106495 10.2048L9.97597 0.108939C10.118 -0.0363129 10.3483 -0.0363129 10.4903 0.108939C10.5613 0.181561 10.5968 0.276773 10.5968 0.371984V5.04814H23.6364C23.8372 5.04814 24 5.21465 24 5.42013V15.516C24 15.7215 23.8372 15.888 23.6364 15.888L23.6368 15.888ZM10.2331 15.1441H23.2727V5.79185H10.2331C10.0322 5.79185 9.86946 5.62534 9.86946 5.41986V1.26978L0.877723 10.4678L9.86946 19.6658V15.5158C9.86946 15.3103 10.0322 15.1438 10.2331 15.1438V15.1441Z" fill="white"/>
</svg>
