<svg width="24" height="21" viewBox="0 0 24 21" fill="none" xmlns="http://www.w3.org/2000/svg">
<path d="M0.363234 15.888H13.4028V20.5642C13.4028 20.7697 13.5656 20.9362 13.7665 20.9362C13.8678 20.9362 13.9591 20.8939 14.0251 20.8257L23.8935 10.7309C24.0355 10.5857 24.0355 10.3501 23.8935 10.2048L14.024 0.108939C13.882 -0.0363129 13.6517 -0.0363129 13.5097 0.108939C13.4387 0.181561 13.4032 0.276773 13.4032 0.371984V5.04814H0.363644C0.162773 5.04814 0 5.21465 0 5.42013V15.516C0 15.7215 0.162773 15.888 0.363644 15.888L0.363234 15.888ZM13.7669 15.1441H0.727293V5.79185H13.7669C13.9678 5.79185 14.1305 5.62534 14.1305 5.41986V1.26978L23.1223 10.4678L14.1305 19.6658V15.5158C14.1305 15.3103 13.9678 15.1438 13.7669 15.1438V15.1441Z" fill="white"/>
</svg>
