<svg width="20" height="20" viewBox="0 0 20 20" fill="none" xmlns="http://www.w3.org/2000/svg">
<path fill-rule="evenodd" clip-rule="evenodd" d="M9.99996 6.71791C8.18734 6.71791 6.71791 8.18734 6.71791 9.99996C6.71791 11.8126 8.18734 13.282 9.99996 13.282C11.8126 13.282 13.282 11.8126 13.282 9.99996C13.282 8.18734 11.8126 6.71791 9.99996 6.71791ZM5.07689 9.99996C5.07689 7.28102 7.28102 5.07689 9.99996 5.07689C12.7189 5.07689 14.923 7.28102 14.923 9.99996C14.923 12.7189 12.7189 14.923 9.99996 14.923C7.28102 14.923 5.07689 12.7189 5.07689 9.99996Z" fill="#101010"/>
<path fill-rule="evenodd" clip-rule="evenodd" d="M9.99996 0.153809C10.4531 0.153809 10.8205 0.521165 10.8205 0.974321V2.61535C10.8205 3.0685 10.4531 3.43586 9.99996 3.43586C9.54681 3.43586 9.17945 3.0685 9.17945 2.61535V0.974321C9.17945 0.521165 9.54681 0.153809 9.99996 0.153809Z" fill="#101010"/>
<path fill-rule="evenodd" clip-rule="evenodd" d="M9.99996 16.5641C10.4531 16.5641 10.8205 16.9314 10.8205 17.3846V19.0256C10.8205 19.4788 10.4531 19.8461 9.99996 19.8461C9.54681 19.8461 9.17945 19.4788 9.17945 19.0256V17.3846C9.17945 16.9314 9.54681 16.5641 9.99996 16.5641Z" fill="#101010"/>
<path fill-rule="evenodd" clip-rule="evenodd" d="M3.03616 3.03516C3.35659 2.71473 3.87611 2.71473 4.19654 3.03516L5.36167 4.20029C5.6821 4.52072 5.6821 5.04024 5.36167 5.36067C5.04124 5.6811 4.52172 5.6811 4.20129 5.36067L3.03616 4.19554C2.71573 3.87511 2.71573 3.35559 3.03616 3.03516Z" fill="#101010"/>
<path fill-rule="evenodd" clip-rule="evenodd" d="M14.6383 14.6377C14.9588 14.3173 15.4783 14.3173 15.7987 14.6377L16.9638 15.8028C17.2843 16.1233 17.2843 16.6428 16.9638 16.9632C16.6434 17.2837 16.1239 17.2837 15.8034 16.9632L14.6383 15.7981C14.3179 15.4777 14.3179 14.9582 14.6383 14.6377Z" fill="#101010"/>
<path fill-rule="evenodd" clip-rule="evenodd" d="M0.153809 9.99996C0.153809 9.54681 0.521165 9.17945 0.974321 9.17945H2.61535C3.0685 9.17945 3.43586 9.54681 3.43586 9.99996C3.43586 10.4531 3.0685 10.8205 2.61535 10.8205H0.974321C0.521165 10.8205 0.153809 10.4531 0.153809 9.99996Z" fill="#101010"/>
<path fill-rule="evenodd" clip-rule="evenodd" d="M16.5641 9.99996C16.5641 9.54681 16.9314 9.17945 17.3846 9.17945H19.0256C19.4788 9.17945 19.8461 9.54681 19.8461 9.99996C19.8461 10.4531 19.4788 10.8205 19.0256 10.8205H17.3846C16.9314 10.8205 16.5641 10.4531 16.5641 9.99996Z" fill="#101010"/>
<path fill-rule="evenodd" clip-rule="evenodd" d="M5.36167 14.6377C5.6821 14.9582 5.6821 15.4777 5.36167 15.7981L4.19654 16.9632C3.87611 17.2837 3.35659 17.2837 3.03616 16.9632C2.71573 16.6428 2.71573 16.1233 3.03616 15.8028L4.20129 14.6377C4.52172 14.3173 5.04124 14.3173 5.36167 14.6377Z" fill="#101010"/>
<path fill-rule="evenodd" clip-rule="evenodd" d="M16.9638 3.03516C17.2843 3.35559 17.2843 3.87511 16.9638 4.19554L15.7987 5.36067C15.4783 5.6811 14.9588 5.6811 14.6383 5.36067C14.3179 5.04024 14.3179 4.52072 14.6383 4.20029L15.8034 3.03516C16.1239 2.71473 16.6434 2.71473 16.9638 3.03516Z" fill="#101010"/>
</svg>
